<svg xmlns="http://www.w3.org/2000/svg" viewBox="0 0 53.26 51.99">
    <path id="github-logo" class="cls-1" d="M53.26,28.07c-.1.82-.18,1.65-.29,2.47a25.08,25.08,0,0,1-3.66,10.07,26.8,26.8,0,0,1-8.39,8.53,26,26,0,0,1-5.76,2.73,1.32,1.32,0,0,1-1.9-1.38c0-2.33,0-4.65,0-7a7.33,7.33,0,0,0-.92-4.05,10.84,10.84,0,0,0-.78-1c1-.2,2.09-.34,3.1-.59a11.15,11.15,0,0,0,6.8-4.27,12.5,12.5,0,0,0,2-5.83,15,15,0,0,0-.1-4.86,9.49,9.49,0,0,0-2.13-4.33.86.86,0,0,1-.19-1,9.2,9.2,0,0,0-.39-6.35.52.52,0,0,0-.39-.25,4.63,4.63,0,0,0-2.66.52c-1.34.63-2.64,1.36-4,2a1.16,1.16,0,0,1-.77.13,25.16,25.16,0,0,0-12.49,0,1.16,1.16,0,0,1-.81-.16,19.32,19.32,0,0,0-5.42-2.44l-.1,0c-1.22-.25-1.45-.11-1.79,1.07a9,9,0,0,0,0,5.72.66.66,0,0,1-.12.54C10,20.85,9.43,23.81,9.7,27a15.5,15.5,0,0,0,1.48,5.54,9.57,9.57,0,0,0,5.67,4.75c1.54.54,3.17.82,4.79,1.23,0-.08,0,0,0,0a5.72,5.72,0,0,0-1.49,3.08.59.59,0,0,1-.24.41c-1.85.7-3.71,1.06-5.54-.05a5.84,5.84,0,0,1-1.93-2.08A5.67,5.67,0,0,0,9.12,37.2a5.17,5.17,0,0,0-1.67-.08c-.39,0-.51.31-.26.63a3.24,3.24,0,0,0,.8.81,7.17,7.17,0,0,1,2.82,3.49,6.5,6.5,0,0,0,1.42,2.33,6,6,0,0,0,3.95,1.48c1.24,0,2.49,0,3.79,0a1.22,1.22,0,0,1,0,.24c0,1.4,0,2.81.05,4.21s-.81,2-2.12,1.49a26.23,26.23,0,0,1-15-13.07A25.92,25.92,0,0,1,.17,23.62,25.75,25.75,0,0,1,6.63,9,25.45,25.45,0,0,1,20.93.63,26,26,0,0,1,43.4,6a25.91,25.91,0,0,1,9.38,15.61c.18.93.25,1.88.38,2.83,0,.18.07.36.1.55Z"/>
</svg>