<svg xmlns="http://www.w3.org/2000/svg" viewBox="0 0 51.65 51.63"><defs><style>.cls-1{fill:#fff;}</style></defs><g id="Capa_2" data-name="Capa 2"><g id="instagram"><g id="instagram-logo">
<path class="cls-1" d="M51.47,13.08a16.93,16.93,0,0,0-1.08-5.84A10.07,10.07,0,0,0,48,3.62a9.85,9.85,0,0,0-3.63-2.35A17.18,17.18,0,0,0,38.56.18C35.23,0,34.25,0,25.83,0S16.42,0,13.1.18A17.18,17.18,0,0,0,7.25,1.27,9.77,9.77,0,0,0,3.62,3.62,9.81,9.81,0,0,0,1.27,7.24,17.36,17.36,0,0,0,.18,13.08C0,16.41,0,17.41,0,25.82s0,9.4.18,12.73a17.3,17.3,0,0,0,1.09,5.84A9.81,9.81,0,0,0,3.62,48a9.77,9.77,0,0,0,3.63,2.35,17.18,17.18,0,0,0,5.85,1.09c3.32.16,4.32.18,12.73.18s9.41,0,12.73-.18a17.18,17.18,0,0,0,5.85-1.09A9.85,9.85,0,0,0,48,48a10.07,10.07,0,0,0,2.35-3.62,16.87,16.87,0,0,0,1.08-5.84c.16-3.33.18-4.33.18-12.73S51.63,16.41,51.47,13.08ZM25.83,42A16.18,16.18,0,1,1,42,25.82,16.19,16.19,0,0,1,25.83,42ZM42.65,12.78A3.78,3.78,0,1,1,46.43,9,3.79,3.79,0,0,1,42.65,12.78Z"/><circle class="cls-1" cx="25.83" cy="25.82" r="10.5"/>
</g></g></g></svg>